<?xml version="1.0" encoding="UTF-8" standalone="no"?>
<!-- Created with Inkscape (http://www.inkscape.org/) -->

<svg
   width="18.279505mm"
   height="17.410824mm"
   viewBox="0 0 18.279505 17.410823"
   version="1.1"
   id="svg5"
   inkscape:version="1.1 (1:1.1+202105261517+ce6663b3b7)"
   sodipodi:docname="EDAM-logo-square-bb.svg"
   xmlns:inkscape="http://www.inkscape.org/namespaces/inkscape"
   xmlns:sodipodi="http://sodipodi.sourceforge.net/DTD/sodipodi-0.dtd"
   xmlns="http://www.w3.org/2000/svg"
   xmlns:svg="http://www.w3.org/2000/svg">
  <sodipodi:namedview
     id="namedview7"
     pagecolor="#ffffff"
     bordercolor="#666666"
     borderopacity="1.0"
     inkscape:pageshadow="2"
     inkscape:pageopacity="0.0"
     inkscape:pagecheckerboard="0"
     inkscape:document-units="mm"
     showgrid="false"
     inkscape:zoom="2.6832492"
     inkscape:cx="2.7951187"
     inkscape:cy="25.156069"
     inkscape:window-width="1563"
     inkscape:window-height="1004"
     inkscape:window-x="1398"
     inkscape:window-y="291"
     inkscape:window-maximized="0"
     inkscape:current-layer="layer1" />
  <defs
     id="defs2" />
  <g
     inkscape:label="Calque 1"
     inkscape:groupmode="layer"
     id="layer1"
     transform="translate(-31.165601,-54.877703)">
    <path
       id="text2409-8-2"
       style="font-style:normal;font-variant:normal;font-weight:bold;font-stretch:normal;font-size:10.5833px;line-height:1.25;font-family:STIXIntegralsD;-inkscape-font-specification:'STIXIntegralsD, Bold';font-variant-ligatures:normal;font-variant-caps:normal;font-variant-numeric:normal;font-variant-east-asian:normal;fill:#cccccc;fill-opacity:1;stroke:none;stroke-width:0.264583"
       d="m 32.997014,55.40687 v 7.715291 h 5.482869 v -1.503784 h -3.493327 v -1.767334 h 3.178101 v -1.503784 h -3.178101 v -1.436605 h 3.379639 V 55.40687 Z m 7.864636,0 v 7.715291 h 2.098063 c 1.157549,0 2.025718,-0.08268 2.604492,-0.248047 0.578775,-0.168809 1.074871,-0.453031 1.488282,-0.852661 0.361733,-0.347954 0.630452,-0.74931 0.806152,-1.204061 0.175699,-0.458196 0.26355,-0.978409 0.26355,-1.560628 0,-0.575329 -0.08785,-1.090374 -0.26355,-1.545125 -0.1757,-0.454752 -0.444419,-0.856108 -0.806152,-1.204061 -0.409965,-0.39963 -0.902617,-0.68213 -1.477947,-0.847494 -0.571883,-0.168809 -1.443498,-0.253214 -2.614827,-0.253214 z m 1.989543,1.503784 h 0.713134 c 0.816485,0 1.438329,0.199817 1.865519,0.599447 0.427191,0.399629 0.640788,0.981854 0.640788,1.746663 0,0.768254 -0.21532,1.353924 -0.645955,1.756999 -0.427191,0.403075 -1.047312,0.604614 -1.860352,0.604614 h -0.713134 z m -8.298719,7.662581 -2.857706,7.715292 h 1.999878 l 0.490926,-1.405599 h 3.110921 l 0.485758,1.405599 h 1.999878 l -2.857706,-7.715292 z m 6.309176,0 v 7.715292 h 1.88619 V 66.64546 l 1.777669,4.159953 h 1.260905 l 1.777669,-4.159953 v 5.643067 h 1.881022 v -7.715292 h -2.526977 l -1.767334,4.128947 -1.756999,-4.128947 z m -5.120618,1.808675 1.0542,3.06958 h -2.113567 z" />
    <path
       id="text2409-8"
       style="font-style:normal;font-variant:normal;font-weight:bold;font-stretch:normal;font-size:10.5833px;line-height:1.25;font-family:STIXIntegralsD;-inkscape-font-specification:'STIXIntegralsD, Bold';font-variant-ligatures:normal;font-variant-caps:normal;font-variant-numeric:normal;font-variant-east-asian:normal;fill:#00448a;fill-opacity:1;stroke:none;stroke-width:0.264583"
       d="m 32.467847,54.877703 v 7.715291 h 5.482869 V 61.08921 h -3.493327 v -1.767334 h 3.178101 v -1.503784 h -3.178101 v -1.436605 h 3.379639 v -1.503784 z m 7.864636,0 v 7.715291 h 2.098063 c 1.157549,0 2.025718,-0.08268 2.604492,-0.248047 0.578775,-0.168809 1.074871,-0.453031 1.488282,-0.852661 0.361733,-0.347954 0.630452,-0.74931 0.806152,-1.204061 0.175699,-0.458196 0.26355,-0.978409 0.26355,-1.560628 0,-0.575329 -0.08785,-1.090374 -0.26355,-1.545125 -0.1757,-0.454752 -0.444419,-0.856108 -0.806152,-1.204061 -0.409965,-0.39963 -0.902617,-0.68213 -1.477947,-0.847494 -0.571883,-0.168809 -1.443498,-0.253214 -2.614827,-0.253214 z m 1.989543,1.503784 h 0.713134 c 0.816485,0 1.438329,0.199817 1.865519,0.599447 0.427191,0.399629 0.640788,0.981854 0.640788,1.746663 0,0.768254 -0.21532,1.353924 -0.645955,1.756999 -0.427191,0.403075 -1.047312,0.604614 -1.860352,0.604614 h -0.713134 z m -8.298719,7.662581 -2.857706,7.715292 h 1.999878 l 0.490926,-1.405599 h 3.110921 l 0.485758,1.405599 h 1.999878 l -2.857706,-7.715292 z m 6.309176,0 v 7.715292 h 1.88619 v -5.643067 l 1.777669,4.159953 h 1.260905 l 1.777669,-4.159953 v 5.643067 h 1.881022 v -7.715292 h -2.526977 l -1.767334,4.128947 -1.756999,-4.128947 z m -5.120618,1.808675 1.0542,3.06958 h -2.113567 z" />
  </g>
</svg>
